<svg width="184" height="48" viewBox="0 0 184 48" fill="none" xmlns="http://www.w3.org/2000/svg">
<g filter="url(#filter0_d_1573_295)">
<path d="M8.64 29.912H18.016V35H1.6V30.232L10.88 17.496H1.6V12.44H18.016V17.208L8.64 29.912ZM32.233 35.224C30.121 35.224 28.1797 34.7333 26.409 33.752C24.6383 32.7493 23.2303 31.3733 22.185 29.624C21.161 27.8533 20.649 25.8587 20.649 23.64C20.649 21.4213 21.161 19.4373 22.185 17.688C23.2303 15.9173 24.6383 14.5413 26.409 13.56C28.1797 12.5787 30.121 12.088 32.233 12.088C34.3663 12.088 36.3077 12.5787 38.057 13.56C39.8277 14.5413 41.225 15.9173 42.249 17.688C43.273 19.4373 43.785 21.4213 43.785 23.64C43.785 25.8587 43.273 27.8533 42.249 29.624C41.225 31.3733 39.8277 32.7493 38.057 33.752C36.2863 34.7333 34.345 35.224 32.233 35.224ZM32.233 29.4C33.833 29.4 35.0917 28.8773 36.009 27.832C36.9477 26.7867 37.417 25.3893 37.417 23.64C37.417 21.848 36.9477 20.44 36.009 19.416C35.0917 18.3707 33.833 17.848 32.233 17.848C30.6117 17.848 29.3423 18.3707 28.425 19.416C27.5077 20.44 27.049 21.848 27.049 23.64C27.049 25.4107 27.5077 26.8187 28.425 27.864C29.3423 28.888 30.6117 29.4 32.233 29.4ZM67.5005 35H61.2285L52.8765 22.392V35H46.6045V12.44H52.8765L61.2285 25.208V12.44H67.5005V35ZM77.3453 17.464V21.144H84.5453V25.912H77.3453V29.976H85.5053V35H71.0733V12.44H85.5053V17.464H77.3453Z" fill="white"/>
</g>
<g filter="url(#filter1_d_1573_295)">
<path d="M106.616 19.96C106.616 21.3253 106.296 22.5733 105.656 23.704C105.037 24.8133 104.088 25.7093 102.808 26.392C101.549 27.0533 100.003 27.384 98.168 27.384H95.064V35H88.792V12.44H98.168C99.9813 12.44 101.517 12.76 102.776 13.4C104.056 14.04 105.016 14.9253 105.656 16.056C106.296 17.1867 106.616 18.488 106.616 19.96ZM97.56 22.392C99.3307 22.392 100.216 21.5813 100.216 19.96C100.216 18.3173 99.3307 17.496 97.56 17.496H95.064V22.392H97.56ZM123.408 31.32H115.408L114.192 35H107.6L115.824 12.44H123.056L131.248 35H124.624L123.408 31.32ZM121.84 26.52L119.408 19.224L117.008 26.52H121.84ZM144.716 35L140.236 26.68H139.564V35H133.292V12.44H143.18C144.993 12.44 146.529 12.76 147.788 13.4C149.047 14.0187 149.996 14.8827 150.636 15.992C151.276 17.08 151.596 18.3067 151.596 19.672C151.596 21.208 151.169 22.5627 150.316 23.736C149.484 24.888 148.257 25.7093 146.636 26.2L151.724 35H144.716ZM139.564 22.392H142.668C143.521 22.392 144.161 22.1893 144.588 21.784C145.015 21.3787 145.228 20.792 145.228 20.024C145.228 19.2987 145.004 18.7333 144.556 18.328C144.129 17.9013 143.5 17.688 142.668 17.688H139.564V22.392ZM167.792 35L160.72 25.112V35H154.448V12.44H160.72V22.168L167.728 12.44H174.96L166.672 23.384L175.376 35H167.792Z" fill="white"/>
</g>
<defs>
<filter id="filter0_d_1573_295" x="1.59998" y="12.088" width="91.9053" height="31.136" filterUnits="userSpaceOnUse" color-interpolation-filters="sRGB">
<feFlood flood-opacity="0" result="BackgroundImageFix"/>
<feColorMatrix in="SourceAlpha" type="matrix" values="0 0 0 0 0 0 0 0 0 0 0 0 0 0 0 0 0 0 127 0" result="hardAlpha"/>
<feOffset dx="4" dy="4"/>
<feGaussianBlur stdDeviation="2"/>
<feComposite in2="hardAlpha" operator="out"/>
<feColorMatrix type="matrix" values="0 0 0 0 0 0 0 0 0 0 0 0 0 0 0 0 0 0 1 0"/>
<feBlend mode="normal" in2="BackgroundImageFix" result="effect1_dropShadow_1573_295"/>
<feBlend mode="normal" in="SourceGraphic" in2="effect1_dropShadow_1573_295" result="shape"/>
</filter>
<filter id="filter1_d_1573_295" x="88.792" y="12.44" width="94.5843" height="30.56" filterUnits="userSpaceOnUse" color-interpolation-filters="sRGB">
<feFlood flood-opacity="0" result="BackgroundImageFix"/>
<feColorMatrix in="SourceAlpha" type="matrix" values="0 0 0 0 0 0 0 0 0 0 0 0 0 0 0 0 0 0 127 0" result="hardAlpha"/>
<feOffset dx="4" dy="4"/>
<feGaussianBlur stdDeviation="2"/>
<feComposite in2="hardAlpha" operator="out"/>
<feColorMatrix type="matrix" values="0 0 0 0 0 0 0 0 0 0 0 0 0 0 0 0 0 0 1 0"/>
<feBlend mode="normal" in2="BackgroundImageFix" result="effect1_dropShadow_1573_295"/>
<feBlend mode="normal" in="SourceGraphic" in2="effect1_dropShadow_1573_295" result="shape"/>
</filter>
</defs>
</svg>
