<svg width="1418" height="560" viewBox="0 0 1418 560" fill="none" xmlns="http://www.w3.org/2000/svg">
<path fill-rule="evenodd" clip-rule="evenodd" d="M502.061 168.614C502.061 161.042 500.52 153.708 497.681 146.962L495.788 143.529L495.435 142.582L494.015 140.101L492.596 137.614L491.886 136.787L489.873 133.354L487.27 131.104L485.73 129.332L483.484 127.792L473.305 118.8L279.844 7.33501C273.098 3.54901 265.999 1.183 258.78 0.358002H254.758L253.691 0H250.851H248.012L246.95 0.237H243.043C235.824 1.183 228.726 3.54901 221.981 7.33501L28.755 118.564L18.576 127.676L16.33 129.212L14.79 130.867L12.188 133.234L10.175 136.551L9.465 137.377L8.166 139.864L6.625 142.345L6.272 143.413L4.38 146.841C1.54 153.471 0 160.806 0 168.498V391.068C0.121 398.644 1.657 405.979 4.496 412.724L6.389 416.153L6.746 417.1L9.585 422.073L10.295 422.899L12.308 426.332L14.911 428.577L16.447 430.355L18.697 431.895L28.87 440.886L222.217 552.348C228.963 556.137 236.061 558.503 243.16 559.33H247.186L248.249 559.686H251.088H253.928L254.994 559.45H258.901C266.116 558.503 273.218 556.137 279.959 552.348L473.305 441.123L483.484 432.01L485.73 430.475L487.27 428.814L489.873 426.448L491.886 423.136L492.596 422.31L493.896 419.822L495.435 417.336L495.788 416.273L497.681 412.841C500.52 406.215 502.061 398.881 502.061 391.189V168.614ZM417.93 160.216C417.93 185.181 397.578 205.534 372.492 205.534C366.22 205.534 360.188 204.231 354.862 201.985L352.969 200.918L301.379 267.535C290.964 279.37 285.406 277.004 272.271 277.477L213.463 277.95C197.016 277.95 191.927 270.258 186.721 266.236L145.779 223.401L144.832 223.994L139.391 225.651V348C139.391 351.429 142.109 354.152 145.542 354.152H207.901L209.793 348.117C216.655 331.79 232.864 320.429 251.682 320.429C276.884 320.429 297.236 340.661 297.236 365.746C297.236 390.831 276.884 411.069 251.682 411.069C232.749 411.069 216.655 399.707 209.793 383.381L209.32 381.724H142.466C126.256 381.724 113.002 368.59 113.002 352.376V225.056L109.453 223.994C93.121 217.012 81.644 200.918 81.644 182.106C81.644 157.137 101.881 136.787 127.082 136.787C152.288 136.787 172.52 157.137 172.52 182.106C172.52 188.378 171.337 194.409 168.971 199.856L165.659 205.887L208.49 249.906L279.723 249.08L332.737 182.106L330.487 177.847C328.121 172.404 326.817 166.485 326.817 160.216C326.817 135.132 347.17 114.778 372.376 114.778C397.578 114.778 417.814 135.132 417.814 160.216" fill="white"/>
<path d="M630.45 352.1L628 274.75V156.8H652.85V392H624.15L575.85 270.2C573.983 265.3 564.767 240.917 548.2 197.05L550.3 274.05V392H526.15V156.8H554.85C591.95 251.067 617.15 316.167 630.45 352.1ZM818.05 210V229.95C818.05 252.35 809.417 266.817 792.15 273.35C810.817 279.65 820.15 294.467 820.15 317.8V338.8C820.15 355.367 815.367 368.433 805.8 378C796.467 387.333 782.467 392 763.8 392H701.15V156.8H761.7C780.367 156.8 794.367 161.583 803.7 171.15C813.267 180.483 818.05 193.433 818.05 210ZM759.6 178.5H726V262.85H759.6C782 262.85 793.2 252.117 793.2 230.65V210.7C793.2 189.233 782 178.5 759.6 178.5ZM795.3 338.1V317.1C795.3 295.633 784.1 284.9 761.7 284.9H726V370.3H761.7C784.1 370.3 795.3 359.567 795.3 338.1ZM958.321 210C958.321 189 947.237 178.5 925.071 178.5H889.721V369.95H925.071C947.237 369.95 958.321 359.217 958.321 337.75V210ZM864.871 156.8H926.471C945.137 156.8 959.254 161.583 968.821 171.15C978.387 180.717 983.171 193.55 983.171 209.65V338.45C983.171 355.017 978.504 368.083 969.171 377.65C959.837 387.217 945.837 392 927.171 392H864.871V156.8ZM1024.07 341.25V243.95C1024.07 227.383 1028.73 214.2 1038.07 204.4C1047.63 194.367 1061.98 189.35 1081.12 189.35C1100.25 189.35 1114.37 194.367 1123.47 204.4C1132.8 214.2 1137.47 227.383 1137.47 243.95V304.85H1048.57V340.2C1048.57 350.7 1051.83 358.517 1058.37 363.65C1064.9 368.783 1075.05 371.35 1088.82 371.35C1102.58 371.35 1116.82 369.25 1131.52 365.05V388.15C1119.85 391.883 1105.97 393.75 1089.87 393.75C1046 393.75 1024.07 376.25 1024.07 341.25ZM1048.57 284.2H1113.67V243.95C1113.67 222.017 1102.82 211.05 1081.12 211.05C1059.42 211.05 1048.57 222.017 1048.57 243.95V284.2ZM1259.81 192.85H1285.01L1240.91 392H1205.91L1161.81 192.85H1187.36L1206.61 284.2L1223.76 374.5C1230.76 335.767 1242.77 275.217 1259.81 192.85ZM1300.67 239.75C1300.67 223.417 1305.33 211.283 1314.67 203.35C1324 195.183 1339.28 191.1 1360.52 191.1C1373.58 191.1 1386.53 193.083 1399.37 197.05V220.15C1387.7 215.95 1374.87 213.85 1360.87 213.85C1346.87 213.85 1337.42 215.95 1332.52 220.15C1327.62 224.117 1325.17 230.883 1325.17 240.45V249.55C1325.17 257.017 1326.57 262.733 1329.37 266.7C1332.4 270.667 1337.88 274.4 1345.82 277.9L1375.92 292.6C1396.92 302.867 1407.42 317.1 1407.42 335.3V344.75C1407.42 377.417 1386.3 393.75 1344.07 393.75C1328.2 393.75 1314.2 391.883 1302.07 388.15V365.05C1314.2 369.25 1327.62 371.35 1342.32 371.35C1357.25 371.35 1367.63 369.133 1373.47 364.7C1379.53 360.033 1382.57 353.267 1382.57 344.4V337.4C1382.57 330.867 1381.05 325.85 1378.02 322.35C1374.98 318.617 1369.03 314.65 1360.17 310.45L1330.07 296.1C1310.47 286.767 1300.67 271.95 1300.67 251.65V239.75Z" fill="white"/>
</svg>
