<?xml version="1.0" encoding="UTF-8"?>
<svg id="Capa_1" data-name="Capa 1" xmlns="http://www.w3.org/2000/svg" xmlns:xlink="http://www.w3.org/1999/xlink" viewBox="0 0 183.57 53.48">
  <defs>
    <style>
      .cls-1 {
        fill-rule: evenodd;
      }

      .cls-1, .cls-2 {
        fill: #fff;
      }

      .cls-3 {
        fill: none;
      }

      .cls-2 {
        font-family: IBMPlexSansDevanagari-Regular, 'IBM Plex Sans Devanagari';
        font-size: 38.37px;
      }

      .cls-4 {
        clip-path: url(#clippath);
      }
    </style>
    <clipPath id="clippath">
      <rect class="cls-3" x="46.92" y="4.74" width="136.65" height="48.74"/>
    </clipPath>
  </defs>
  <path class="cls-1" d="M42.44,14.25c0-.64-.13-1.26-.37-1.83l-.16-.29-.03-.08-.12-.21-.12-.21-.06-.07-.17-.29-.22-.19-.13-.15-.19-.13-.86-.76L23.66.62c-.57-.32-1.17-.52-1.78-.59h-.34s-.09-.03-.09-.03h-.24s-.24,0-.24,0l-.09.02h-.33c-.61.08-1.21.28-1.78.6L2.44,10.02l-.86.77-.19.13-.13.14-.22.2-.17.28-.06.07-.11.21-.13.21-.03.09-.16.29c-.24.56-.37,1.18-.37,1.83v18.81c.01.64.14,1.26.38,1.83l.16.29.03.08.24.42.06.07.17.29.22.19.13.15.19.13.86.76,16.34,9.42c.57.32,1.17.52,1.77.59h.34s.09.03.09.03h.24s.24,0,.24,0l.09-.02h.33c.61-.08,1.21-.28,1.78-.6l16.34-9.4.86-.77.19-.13.13-.14.22-.2.17-.28.06-.07.11-.21.13-.21.03-.09.16-.29c.24-.56.37-1.18.37-1.83V14.25ZM35.33,13.54c0,2.11-1.72,3.83-3.84,3.83-.53,0-1.04-.11-1.49-.3l-.16-.09-4.36,5.63c-.88,1-1.35.8-2.46.84l-4.97.04c-1.39,0-1.82-.65-2.26-.99l-3.46-3.62-.08.05-.46.14v10.34c0,.29.23.52.52.52h5.27l.16-.51c.58-1.38,1.95-2.34,3.54-2.34,2.13,0,3.85,1.71,3.85,3.83s-1.72,3.83-3.85,3.83c-1.6,0-2.96-.96-3.54-2.34l-.04-.14h-5.65c-1.37,0-2.49-1.11-2.49-2.48v-10.76l-.3-.09c-1.38-.59-2.35-1.95-2.35-3.54,0-2.11,1.71-3.83,3.84-3.83s3.84,1.72,3.84,3.83c0,.53-.1,1.04-.3,1.5l-.28.51,3.62,3.72,6.02-.07,4.48-5.66-.19-.36c-.2-.46-.31-.96-.31-1.49,0-2.12,1.72-3.84,3.85-3.84s3.84,1.72,3.84,3.84"/>
  <g class="cls-4">
    <text class="cls-2" transform="translate(46.92 37.32)"><tspan x="0" y="0">NBD</tspan></text>
    <text class="cls-2" transform="translate(125.05 37.32)"><tspan x="0" y="0">e</tspan></text>
    <text class="cls-2" transform="translate(145.9 37.32)"><tspan x="0" y="0">vs</tspan></text>
  </g>
</svg>